<?xml version="1.0" standalone="no"?><!DOCTYPE svg PUBLIC "-//W3C//DTD SVG 1.1//EN" "http://www.w3.org/Graphics/SVG/1.1/DTD/svg11.dtd"><svg t="1680677345148" class="icon" viewBox="0 0 1024 1024" version="1.1" xmlns="http://www.w3.org/2000/svg" p-id="3280" xmlns:xlink="http://www.w3.org/1999/xlink" width="1080" height="1080"><path d="M170.666667 170.666667 426.666667 170.666667 426.666667 426.666667 170.666667 426.666667 170.666667 170.666667M853.333333 170.666667 853.333333 426.666667 597.333333 426.666667 597.333333 170.666667 853.333333 170.666667M597.333333 640 682.666667 640 682.666667 554.666667 597.333333 554.666667 597.333333 469.333333 682.666667 469.333333 682.666667 554.666667 768 554.666667 768 469.333333 853.333333 469.333333 853.333333 554.666667 768 554.666667 768 640 853.333333 640 853.333333 768 768 768 768 853.333333 682.666667 853.333333 682.666667 768 554.666667 768 554.666667 853.333333 469.333333 853.333333 469.333333 682.666667 597.333333 682.666667 597.333333 640M682.666667 640 682.666667 768 768 768 768 640 682.666667 640M170.666667 853.333333 170.666667 597.333333 426.666667 597.333333 426.666667 853.333333 170.666667 853.333333M256 256 256 341.333333 341.333333 341.333333 341.333333 256 256 256M682.666667 256 682.666667 341.333333 768 341.333333 768 256 682.666667 256M256 682.666667 256 768 341.333333 768 341.333333 682.666667 256 682.666667M170.666667 469.333333 256 469.333333 256 554.666667 170.666667 554.666667 170.666667 469.333333M384 469.333333 554.666667 469.333333 554.666667 640 469.333333 640 469.333333 554.666667 384 554.666667 384 469.333333M469.333333 256 554.666667 256 554.666667 426.666667 469.333333 426.666667 469.333333 256M85.333333 85.333333 85.333333 256 0 256 0 85.333333C0 38.4 38.4 0 85.333333 0L256 0 256 85.333333 85.333333 85.333333M938.666667 0C985.6 0 1024 38.4 1024 85.333333L1024 256 938.666667 256 938.666667 85.333333 768 85.333333 768 0 938.666667 0M85.333333 768 85.333333 938.666667 256 938.666667 256 1024 85.333333 1024C38.4 1024 0 985.6 0 938.666667L0 768 85.333333 768M938.666667 938.666667 938.666667 768 1024 768 1024 938.666667C1024 985.6 985.6 1024 938.666667 1024L768 1024 768 938.666667 938.666667 938.666667Z" p-id="3281"></path></svg>